<?xml version="1.0" standalone="no"?>
<!DOCTYPE svg PUBLIC "-//W3C//DTD SVG 20010904//EN"
 "http://www.w3.org/TR/2001/REC-SVG-20010904/DTD/svg10.dtd">
<svg version="1.0" xmlns="http://www.w3.org/2000/svg"
 width="75.000000pt" height="75.000000pt" viewBox="0 0 75.000000 75.000000"
 preserveAspectRatio="xMidYMid meet">
<metadata>
Created by potrace 1.11, written by Peter Selinger 2001-2013
</metadata>
<g transform="translate(0.000000,75.000000) scale(0.100000,-0.100000)"
fill="#000000" stroke="none">
<path d="M176 733 c-10 -11 -6 -23 7 -23 28 0 46 -41 147 -318 87 -240 101
-286 92 -307 -6 -13 -20 -26 -32 -30 -12 -4 -19 -12 -17 -18 3 -9 55 -12 178
-13 179 0 226 8 172 31 -25 11 -36 33 -101 216 -41 112 -96 263 -122 334 l-48
130 -135 2 c-74 1 -138 -1 -141 -4z"/>
<path d="M64 245 c-89 -45 -80 -180 15 -213 95 -33 179 63 141 162 -20 52
-100 79 -156 51z"/>
</g>
</svg>
